# xmcd CD database file
#
# Track frame offsets:
#	150
#	11483
#	23775
#	39220
#	56200
#	71803
#	85965
#	99093
#	104608
#	118070
#	129100
#	143153
#	163065
#
# Disc length: 2381 seconds
#
# Revision: 1
# Processed by: cddbd v1.5.1PL0 Copyright (c) Steve Scherf et al.
# Submitted via: CDex 1.51
#
DISCID=a8094b0d
DTITLE=PENPALS - PENPALS
DYEAR=1998
DGENRE=Rock
TTITLE0=Astro Motel
TTITLE1=Cars
TTITLE2=70times
TTITLE3=I guess everything reminds you
TTITLE4=Fairset
TTITLE5=Horoscope #7
TTITLE6=South california
TTITLE7=Appice
TTITLE8=Propshot
TTITLE9=Tonight
TTITLE10=Fishy
TTITLE11=Gain
TTITLE12=Fitness U.S.A.
EXTD=YEAR: 1998
EXTT0=
EXTT1=
EXTT2=
EXTT3=
EXTT4=
EXTT5=
EXTT6=
EXTT7=
EXTT8=
EXTT9=
EXTT10=
EXTT11=
EXTT12=
PLAYORDER=
